<?xml version="1.0" encoding="utf-8"?>
<!-- Generator: Adobe Illustrator 16.0.4, SVG Export Plug-In . SVG Version: 6.00 Build 0)  -->
<!DOCTYPE svg PUBLIC "-//W3C//DTD SVG 1.1//EN" "http://www.w3.org/Graphics/SVG/1.1/DTD/svg11.dtd">
<svg version="1.1" id="Layer_1" xmlns="http://www.w3.org/2000/svg" xmlns:xlink="http://www.w3.org/1999/xlink" x="0px" y="0px"
	 width="336.435px" height="133.13px" viewBox="0 0 336.435 133.13" enable-background="new 0 0 336.435 133.13"
	 xml:space="preserve">
<g>
	<g>
		<path fill="#FFFFFF" d="M215.282,42.751c2.881,7.201,4.48,14.882,4.48,23.046c0,8.163-1.6,15.843-4.48,23.048
			c-2.884,7.039-7.043,13.284-12.324,18.883c-5.285,5.285-11.524,9.604-18.562,12.806c-7.204,3.037-14.883,4.642-22.728,4.642
			c-7.681,0-15.208-1.604-22.564-4.642c-6.725-3.043-12.966-7.366-18.25-12.806c-5.279-5.442-9.442-11.844-12.481-18.883
			c-3.041-7.522-4.481-15.364-4.481-23.048c0-7.681,1.44-15.523,4.481-23.046c3.04-7.362,7.202-13.605,12.481-19.043
			c5.284-5.446,11.526-9.766,18.25-12.808c7.357-3.041,14.884-4.639,22.564-4.639c7.845,0,15.523,1.599,22.728,4.639
			c7.038,3.042,13.277,7.362,18.562,12.808C208.239,29.146,212.398,35.548,215.282,42.751z M199.116,65.638
			c0-10.087-3.843-19.525-10.881-26.408c-7.043-7.043-16.486-10.882-26.567-10.882c-9.923,0-19.211,3.839-26.408,10.723
			c-6.88,7.042-10.888,16.48-10.888,26.567c0,10.085,4.008,19.527,10.888,26.565c7.043,7.044,16.485,10.884,26.408,10.884
			c10.081,0,19.524-3.84,26.567-10.884C195.273,85.165,199.116,75.723,199.116,65.638z"/>
	</g>
	<path fill="#FFFFFF" d="M310.329,111.628c-5.518,4.514-12.04,8.028-19.403,10.368c-6.354,2.174-13.214,3.179-20.57,3.179h-44.659
		V6.261h44.659c6.856,0,14.048,1.172,20.57,3.178c7.363,2.34,13.886,5.853,19.403,10.364c6.189,5.02,10.865,11.38,14.218,18.736
		c3.681,7.861,5.517,17.059,5.517,27.431c0,9.864-1.836,19.067-5.517,27.095C321.368,100.254,316.519,106.445,310.329,111.628z
		 M307.987,65.971c0-13.55-4.347-23.415-12.716-29.438c-6.681-5.019-15.713-7.527-26.255-7.527H247.78v73.422h21.236
		c13.547,0,21.743-3.848,26.255-7.19C303.641,89.385,307.987,79.352,307.987,65.971z"/>
	<polygon fill="#FFFFFF" points="38.224,6.261 46.892,24.41 87.071,24.41 62.875,77.422 37.125,24.496 37.121,24.496 28.412,6.261 
		4.61,6.261 61.758,125.175 119.067,6.261 	"/>
	<polygon fill="#FFFFFF" points="180.059,65.145 149.768,44.532 149.629,86.903 	"/>
</g>
</svg>
